<svg xmlns="http://www.w3.org/2000/svg" viewBox="0 0 60 40" role="img" aria-label="China">
  <rect width="60" height="40" fill="#ee1c25"/>
  <g fill="#ffde00">
    <path d="M10 5l1.7 5.2h5.5L12.7 13l1.7 5.2L10 15l-4.4 3.2 1.7-5.2-4.5-2.8h5.5z"/>
    <path d="M21 5l.6 2h2.1L22 8.2l.7 2-1.7-1.3-1.7 1.3.7-2-1.7-1.2h2.1zM25 11l.6 2h2.1L26 14.2l.7 2-1.7-1.3-1.7 1.3.7-2-1.7-1.2h2.1zM25 19l.6 2h2.1L26 22.2l.7 2-1.7-1.3-1.7 1.3.7-2-1.7-1.2h2.1zM21 25l.6 2h2.1L22 28.2l.7 2-1.7-1.3-1.7 1.3.7-2-1.7-1.2h2.1z"/>
  </g>
</svg>
